<svg aria-roledescription="er" viewBox="-5.029806137084961 0 486.5613708496094 810" style="max-width: 486.561px; background-color: white;" xmlns:xlink="http://www.w3.org/1999/xlink" xmlns="http://www.w3.org/2000/svg" width="100%" id="mermaid-0"><style>#mermaid-0{font-family:"trebuchet ms",verdana,arial,sans-serif;font-size:16px;fill:#000000;}#mermaid-0 .error-icon{fill:#552222;}#mermaid-0 .error-text{fill:#552222;stroke:#552222;}#mermaid-0 .edge-thickness-normal{stroke-width:2px;}#mermaid-0 .edge-thickness-thick{stroke-width:3.5px;}#mermaid-0 .edge-pattern-solid{stroke-dasharray:0;}#mermaid-0 .edge-pattern-dashed{stroke-dasharray:3;}#mermaid-0 .edge-pattern-dotted{stroke-dasharray:2;}#mermaid-0 .marker{fill:#000000;stroke:#000000;}#mermaid-0 .marker.cross{stroke:#000000;}#mermaid-0 svg{font-family:"trebuchet ms",verdana,arial,sans-serif;font-size:16px;}#mermaid-0 .entityBox{fill:#cde498;stroke:#13540c;}#mermaid-0 .attributeBoxOdd{fill:#ffffff;stroke:#13540c;}#mermaid-0 .attributeBoxEven{fill:#f2f2f2;stroke:#13540c;}#mermaid-0 .relationshipLabelBox{fill:hsl(78.1578947368, 58.4615384615%, 84.5098039216%);opacity:0.7;background-color:hsl(78.1578947368, 58.4615384615%, 84.5098039216%);}#mermaid-0 .relationshipLabelBox rect{opacity:0.5;}#mermaid-0 .relationshipLine{stroke:#000000;}#mermaid-0 .entityTitleText{text-anchor:middle;font-size:18px;fill:#000000;}#mermaid-0 :root{--mermaid-font-family:"trebuchet ms",verdana,arial,sans-serif;}</style><g/><defs><marker orient="auto" markerHeight="18" markerWidth="18" refY="9" refX="0" id="ONLY_ONE_START"><path d="M9,0 L9,18 M15,0 L15,18" fill="none" stroke="gray"/></marker></defs><defs><marker orient="auto" markerHeight="18" markerWidth="18" refY="9" refX="18" id="ONLY_ONE_END"><path d="M3,0 L3,18 M9,0 L9,18" fill="none" stroke="gray"/></marker></defs><defs><marker orient="auto" markerHeight="18" markerWidth="30" refY="9" refX="0" id="ZERO_OR_ONE_START"><circle r="6" cy="9" cx="21" fill="white" stroke="gray"/><path d="M9,0 L9,18" fill="none" stroke="gray"/></marker></defs><defs><marker orient="auto" markerHeight="18" markerWidth="30" refY="9" refX="30" id="ZERO_OR_ONE_END"><circle r="6" cy="9" cx="9" fill="white" stroke="gray"/><path d="M21,0 L21,18" fill="none" stroke="gray"/></marker></defs><defs><marker orient="auto" markerHeight="36" markerWidth="45" refY="18" refX="18" id="ONE_OR_MORE_START"><path d="M0,18 Q 18,0 36,18 Q 18,36 0,18 M42,9 L42,27" fill="none" stroke="gray"/></marker></defs><defs><marker orient="auto" markerHeight="36" markerWidth="45" refY="18" refX="27" id="ONE_OR_MORE_END"><path d="M3,9 L3,27 M9,18 Q27,0 45,18 Q27,36 9,18" fill="none" stroke="gray"/></marker></defs><defs><marker orient="auto" markerHeight="36" markerWidth="57" refY="18" refX="18" id="ZERO_OR_MORE_START"><circle r="6" cy="18" cx="48" fill="white" stroke="gray"/><path d="M0,18 Q18,0 36,18 Q18,36 0,18" fill="none" stroke="gray"/></marker></defs><defs><marker orient="auto" markerHeight="36" markerWidth="57" refY="18" refX="39" id="ZERO_OR_MORE_END"><circle r="6" cy="18" cx="9" fill="white" stroke="gray"/><path d="M21,18 Q39,0 57,18 Q39,36 21,18" fill="none" stroke="gray"/></marker></defs><path style="stroke: gray; fill: none;" marker-start="url(#ZERO_OR_MORE_START)" marker-end="url(#ONLY_ONE_END)" d="M92.05437109605322,311L81.18912206205933,324.8333333333333C70.32387302806542,338.6666666666667,48.59337496007763,366.3333333333333,37.72812592608374,397.8333333333333C26.862876892089844,429.3333333333333,26.862876892089844,464.6666666666667,26.862876892089844,500C26.862876892089844,535.3333333333334,26.862876892089844,570.6666666666666,32.792834659587285,596.6666666666666C38.72279242708473,622.6666666666666,50.58270796207961,639.3333333333334,56.512665729577044,647.6666666666666L62.442623497074486,656" class="er relationshipLine"/><path style="stroke: gray; fill: none;" marker-start="url(#ZERO_OR_MORE_START)" marker-end="url(#ONLY_ONE_END)" d="M128.1845967994546,311L139.04984583344847,324.8333333333333C149.91509486744238,338.6666666666667,171.64559293543016,366.3333333333333,182.51084196942406,388.5C193.37609100341797,410.6666666666667,193.37609100341797,427.3333333333333,193.37609100341797,435.6666666666667L193.37609100341797,444" class="er relationshipLine"/><path style="stroke: gray; fill: none;" marker-start="url(#ZERO_OR_MORE_START)" marker-end="url(#ZERO_OR_ONE_END)" d="M193.37609100341797,556L193.37609100341797,564.3333333333334C193.37609100341797,572.6666666666666,193.37609100341797,589.3333333333334,187.44613323592054,606C181.51617546842309,622.6666666666666,169.6562599334282,639.3333333333334,163.72630216593078,647.6666666666666L157.79634439843332,656" class="er relationshipLine"/><path style="stroke: gray; fill: none;" marker-start="url(#ZERO_OR_MORE_START)" marker-end="url(#ONLY_ONE_END)" d="M169.24826863126935,132L159.3934711840168,140.33333333333334C149.5386737367642,148.66666666666666,129.82907884225907,165.33333333333334,119.97428139500649,187.5C110.1194839477539,209.66666666666666,110.1194839477539,237.33333333333334,110.1194839477539,251.16666666666666L110.1194839477539,265" class="er relationshipLine"/><path style="stroke: gray; fill: none;" marker-start="url(#ZERO_OR_MORE_START)" marker-end="url(#ONLY_ONE_END)" d="M301.6967463223439,132L311.5515437695965,140.33333333333334C321.40634121684906,148.66666666666666,341.1159361113542,165.33333333333334,350.97073355860675,182C360.8255310058594,198.66666666666666,360.8255310058594,215.33333333333334,360.8255310058594,223.66666666666666L360.8255310058594,232" class="er relationshipLine"/><g transform="translate(60.119483947753906,265 )" id="entity-Participant-84856905-0212-4e6f-bebe-2a27a2675fae"><rect height="46" width="100" y="0" x="0" class="er entityBox"/><text style="dominant-baseline: middle; text-anchor: middle; font-size: 12px;" transform="translate(50,12)" y="0" x="0" id="text-entity-Participant-84856905-0212-4e6f-bebe-2a27a2675fae" class="er entityLabel">Participant</text><rect height="22" width="44.39861551920573" y="24" x="0" class="er attributeBoxOdd"/><text style="dominant-baseline: middle; font-size: 10.2px;" transform="translate(5,35)" y="0" x="0" id="text-entity-Participant-84856905-0212-4e6f-bebe-2a27a2675fae-attr-1-type" class="er entityLabel">String</text><rect height="22" width="25.911142985026043" y="24" x="44.39861551920573" class="er attributeBoxOdd"/><text style="dominant-baseline: middle; font-size: 10.2px;" transform="translate(49.39861551920573,35)" y="0" x="0" id="text-entity-Participant-84856905-0212-4e6f-bebe-2a27a2675fae-attr-1-name" class="er entityLabel">id</text><rect height="22" width="29.69024149576823" y="24" x="70.30975850423177" class="er attributeBoxOdd"/><text style="dominant-baseline: middle; font-size: 10.2px;" transform="translate(75.30975850423177,35)" y="0" x="0" id="text-entity-Participant-84856905-0212-4e6f-bebe-2a27a2675fae-attr-1-key" class="er entityLabel">PK</text></g><g transform="translate(126.86287689208984,444 )" id="entity-Pool-e14013fe-5d8c-401e-ac02-aeccafb2b72f"><rect height="112" width="133.02642822265625" y="0" x="0" class="er entityBox"/><text style="dominant-baseline: middle; text-anchor: middle; font-size: 12px;" transform="translate(66.51321411132812,12)" y="0" x="0" id="text-entity-Pool-e14013fe-5d8c-401e-ac02-aeccafb2b72f" class="er entityLabel">Pool</text><rect height="22" width="54.095550537109375" y="24" x="0" class="er attributeBoxOdd"/><text style="dominant-baseline: middle; font-size: 10.2px;" transform="translate(5,35)" y="0" x="0" id="text-entity-Pool-e14013fe-5d8c-401e-ac02-aeccafb2b72f-attr-1-type" class="er entityLabel">String</text><rect height="22" width="56.243194580078125" y="24" x="54.095550537109375" class="er attributeBoxOdd"/><text style="dominant-baseline: middle; font-size: 10.2px;" transform="translate(59.095550537109375,35)" y="0" x="0" id="text-entity-Pool-e14013fe-5d8c-401e-ac02-aeccafb2b72f-attr-1-name" class="er entityLabel">id</text><rect height="22" width="22.68768310546875" y="24" x="110.3387451171875" class="er attributeBoxOdd"/><text style="dominant-baseline: middle; font-size: 10.2px;" transform="translate(115.3387451171875,35)" y="0" x="0" id="text-entity-Pool-e14013fe-5d8c-401e-ac02-aeccafb2b72f-attr-1-key" class="er entityLabel">PK</text><rect height="22" width="54.095550537109375" y="46" x="0" class="er attributeBoxEven"/><text style="dominant-baseline: middle; font-size: 10.2px;" transform="translate(5,57)" y="0" x="0" id="text-entity-Pool-e14013fe-5d8c-401e-ac02-aeccafb2b72f-attr-2-type" class="er entityLabel">String</text><rect height="22" width="56.243194580078125" y="46" x="54.095550537109375" class="er attributeBoxEven"/><text style="dominant-baseline: middle; font-size: 10.2px;" transform="translate(59.095550537109375,57)" y="0" x="0" id="text-entity-Pool-e14013fe-5d8c-401e-ac02-aeccafb2b72f-attr-2-name" class="er entityLabel">title</text><rect height="22" width="22.68768310546875" y="46" x="110.3387451171875" class="er attributeBoxEven"/><text style="dominant-baseline: middle; font-size: 10.2px;" transform="translate(115.3387451171875,57)" y="0" x="0" id="text-entity-Pool-e14013fe-5d8c-401e-ac02-aeccafb2b72f-attr-2-key" class="er entityLabel"/><rect height="22" width="54.095550537109375" y="68" x="0" class="er attributeBoxOdd"/><text style="dominant-baseline: middle; font-size: 10.2px;" transform="translate(5,79)" y="0" x="0" id="text-entity-Pool-e14013fe-5d8c-401e-ac02-aeccafb2b72f-attr-3-type" class="er entityLabel">String</text><rect height="22" width="56.243194580078125" y="68" x="54.095550537109375" class="er attributeBoxOdd"/><text style="dominant-baseline: middle; font-size: 10.2px;" transform="translate(59.095550537109375,79)" y="0" x="0" id="text-entity-Pool-e14013fe-5d8c-401e-ac02-aeccafb2b72f-attr-3-name" class="er entityLabel">code</text><rect height="22" width="22.68768310546875" y="68" x="110.3387451171875" class="er attributeBoxOdd"/><text style="dominant-baseline: middle; font-size: 10.2px;" transform="translate(115.3387451171875,79)" y="0" x="0" id="text-entity-Pool-e14013fe-5d8c-401e-ac02-aeccafb2b72f-attr-3-key" class="er entityLabel"/><rect height="22" width="54.095550537109375" y="90" x="0" class="er attributeBoxEven"/><text style="dominant-baseline: middle; font-size: 10.2px;" transform="translate(5,101)" y="0" x="0" id="text-entity-Pool-e14013fe-5d8c-401e-ac02-aeccafb2b72f-attr-4-type" class="er entityLabel">DateTime</text><rect height="22" width="56.243194580078125" y="90" x="54.095550537109375" class="er attributeBoxEven"/><text style="dominant-baseline: middle; font-size: 10.2px;" transform="translate(59.095550537109375,101)" y="0" x="0" id="text-entity-Pool-e14013fe-5d8c-401e-ac02-aeccafb2b72f-attr-4-name" class="er entityLabel">createdAt</text><rect height="22" width="22.68768310546875" y="90" x="110.3387451171875" class="er attributeBoxEven"/><text style="dominant-baseline: middle; font-size: 10.2px;" transform="translate(115.3387451171875,101)" y="0" x="0" id="text-entity-Pool-e14013fe-5d8c-401e-ac02-aeccafb2b72f-attr-4-key" class="er entityLabel"/></g><g transform="translate(20,656 )" id="entity-User-02fcb03e-d247-46f3-a596-7ca70f31fb1a"><rect height="134" width="180.2389678955078" y="0" x="0" class="er entityBox"/><text style="dominant-baseline: middle; text-anchor: middle; font-size: 12px;" transform="translate(90.1194839477539,12)" y="0" x="0" id="text-entity-User-02fcb03e-d247-46f3-a596-7ca70f31fb1a" class="er entityLabel">User</text><rect height="22" width="54.095550537109375" y="24" x="0" class="er attributeBoxOdd"/><text style="dominant-baseline: middle; font-size: 10.2px;" transform="translate(5,35)" y="0" x="0" id="text-entity-User-02fcb03e-d247-46f3-a596-7ca70f31fb1a-attr-1-type" class="er entityLabel">String</text><rect height="22" width="56.243194580078125" y="24" x="54.095550537109375" class="er attributeBoxOdd"/><text style="dominant-baseline: middle; font-size: 10.2px;" transform="translate(59.095550537109375,35)" y="0" x="0" id="text-entity-User-02fcb03e-d247-46f3-a596-7ca70f31fb1a-attr-1-name" class="er entityLabel">id</text><rect height="22" width="22.68768310546875" y="24" x="110.3387451171875" class="er attributeBoxOdd"/><text style="dominant-baseline: middle; font-size: 10.2px;" transform="translate(115.3387451171875,35)" y="0" x="0" id="text-entity-User-02fcb03e-d247-46f3-a596-7ca70f31fb1a-attr-1-key" class="er entityLabel">PK</text><rect height="22" width="47.21253967285156" y="24" x="133.02642822265625" class="er attributeBoxOdd"/><text style="dominant-baseline: middle; font-size: 10.2px;" transform="translate(138.02642822265625,35)" y="0" x="0" id="text-entity-User-02fcb03e-d247-46f3-a596-7ca70f31fb1a-attr-1-comment" class="er entityLabel"/><rect height="22" width="54.095550537109375" y="46" x="0" class="er attributeBoxEven"/><text style="dominant-baseline: middle; font-size: 10.2px;" transform="translate(5,57)" y="0" x="0" id="text-entity-User-02fcb03e-d247-46f3-a596-7ca70f31fb1a-attr-2-type" class="er entityLabel">String</text><rect height="22" width="56.243194580078125" y="46" x="54.095550537109375" class="er attributeBoxEven"/><text style="dominant-baseline: middle; font-size: 10.2px;" transform="translate(59.095550537109375,57)" y="0" x="0" id="text-entity-User-02fcb03e-d247-46f3-a596-7ca70f31fb1a-attr-2-name" class="er entityLabel">name</text><rect height="22" width="22.68768310546875" y="46" x="110.3387451171875" class="er attributeBoxEven"/><text style="dominant-baseline: middle; font-size: 10.2px;" transform="translate(115.3387451171875,57)" y="0" x="0" id="text-entity-User-02fcb03e-d247-46f3-a596-7ca70f31fb1a-attr-2-key" class="er entityLabel"/><rect height="22" width="47.21253967285156" y="46" x="133.02642822265625" class="er attributeBoxEven"/><text style="dominant-baseline: middle; font-size: 10.2px;" transform="translate(138.02642822265625,57)" y="0" x="0" id="text-entity-User-02fcb03e-d247-46f3-a596-7ca70f31fb1a-attr-2-comment" class="er entityLabel"/><rect height="22" width="54.095550537109375" y="68" x="0" class="er attributeBoxOdd"/><text style="dominant-baseline: middle; font-size: 10.2px;" transform="translate(5,79)" y="0" x="0" id="text-entity-User-02fcb03e-d247-46f3-a596-7ca70f31fb1a-attr-3-type" class="er entityLabel">String</text><rect height="22" width="56.243194580078125" y="68" x="54.095550537109375" class="er attributeBoxOdd"/><text style="dominant-baseline: middle; font-size: 10.2px;" transform="translate(59.095550537109375,79)" y="0" x="0" id="text-entity-User-02fcb03e-d247-46f3-a596-7ca70f31fb1a-attr-3-name" class="er entityLabel">email</text><rect height="22" width="22.68768310546875" y="68" x="110.3387451171875" class="er attributeBoxOdd"/><text style="dominant-baseline: middle; font-size: 10.2px;" transform="translate(115.3387451171875,79)" y="0" x="0" id="text-entity-User-02fcb03e-d247-46f3-a596-7ca70f31fb1a-attr-3-key" class="er entityLabel"/><rect height="22" width="47.21253967285156" y="68" x="133.02642822265625" class="er attributeBoxOdd"/><text style="dominant-baseline: middle; font-size: 10.2px;" transform="translate(138.02642822265625,79)" y="0" x="0" id="text-entity-User-02fcb03e-d247-46f3-a596-7ca70f31fb1a-attr-3-comment" class="er entityLabel"/><rect height="22" width="54.095550537109375" y="90" x="0" class="er attributeBoxEven"/><text style="dominant-baseline: middle; font-size: 10.2px;" transform="translate(5,101)" y="0" x="0" id="text-entity-User-02fcb03e-d247-46f3-a596-7ca70f31fb1a-attr-4-type" class="er entityLabel">String</text><rect height="22" width="56.243194580078125" y="90" x="54.095550537109375" class="er attributeBoxEven"/><text style="dominant-baseline: middle; font-size: 10.2px;" transform="translate(59.095550537109375,101)" y="0" x="0" id="text-entity-User-02fcb03e-d247-46f3-a596-7ca70f31fb1a-attr-4-name" class="er entityLabel">avatarUrl</text><rect height="22" width="22.68768310546875" y="90" x="110.3387451171875" class="er attributeBoxEven"/><text style="dominant-baseline: middle; font-size: 10.2px;" transform="translate(115.3387451171875,101)" y="0" x="0" id="text-entity-User-02fcb03e-d247-46f3-a596-7ca70f31fb1a-attr-4-key" class="er entityLabel"/><rect height="22" width="47.21253967285156" y="90" x="133.02642822265625" class="er attributeBoxEven"/><text style="dominant-baseline: middle; font-size: 10.2px;" transform="translate(138.02642822265625,101)" y="0" x="0" id="text-entity-User-02fcb03e-d247-46f3-a596-7ca70f31fb1a-attr-4-comment" class="er entityLabel">nullable</text><rect height="22" width="54.095550537109375" y="112" x="0" class="er attributeBoxOdd"/><text style="dominant-baseline: middle; font-size: 10.2px;" transform="translate(5,123)" y="0" x="0" id="text-entity-User-02fcb03e-d247-46f3-a596-7ca70f31fb1a-attr-5-type" class="er entityLabel">DateTime</text><rect height="22" width="56.243194580078125" y="112" x="54.095550537109375" class="er attributeBoxOdd"/><text style="dominant-baseline: middle; font-size: 10.2px;" transform="translate(59.095550537109375,123)" y="0" x="0" id="text-entity-User-02fcb03e-d247-46f3-a596-7ca70f31fb1a-attr-5-name" class="er entityLabel">createdAt</text><rect height="22" width="22.68768310546875" y="112" x="110.3387451171875" class="er attributeBoxOdd"/><text style="dominant-baseline: middle; font-size: 10.2px;" transform="translate(115.3387451171875,123)" y="0" x="0" id="text-entity-User-02fcb03e-d247-46f3-a596-7ca70f31fb1a-attr-5-key" class="er entityLabel"/><rect height="22" width="47.21253967285156" y="112" x="133.02642822265625" class="er attributeBoxOdd"/><text style="dominant-baseline: middle; font-size: 10.2px;" transform="translate(138.02642822265625,123)" y="0" x="0" id="text-entity-User-02fcb03e-d247-46f3-a596-7ca70f31fb1a-attr-5-comment" class="er entityLabel"/></g><g transform="translate(260.1194839477539,232 )" id="entity-Game-0e04f80d-7238-4742-9b47-bfba30f3251a"><rect height="112" width="201.41209411621094" y="0" x="0" class="er entityBox"/><text style="dominant-baseline: middle; text-anchor: middle; font-size: 12px;" transform="translate(100.70604705810547,12)" y="0" x="0" id="text-entity-Game-0e04f80d-7238-4742-9b47-bfba30f3251a" class="er entityLabel">Game</text><rect height="22" width="54.095550537109375" y="24" x="0" class="er attributeBoxOdd"/><text style="dominant-baseline: middle; font-size: 10.2px;" transform="translate(5,35)" y="0" x="0" id="text-entity-Game-0e04f80d-7238-4742-9b47-bfba30f3251a-attr-1-type" class="er entityLabel">String</text><rect height="22" width="124.62886047363281" y="24" x="54.095550537109375" class="er attributeBoxOdd"/><text style="dominant-baseline: middle; font-size: 10.2px;" transform="translate(59.095550537109375,35)" y="0" x="0" id="text-entity-Game-0e04f80d-7238-4742-9b47-bfba30f3251a-attr-1-name" class="er entityLabel">id</text><rect height="22" width="22.68768310546875" y="24" x="178.7244110107422" class="er attributeBoxOdd"/><text style="dominant-baseline: middle; font-size: 10.2px;" transform="translate(183.7244110107422,35)" y="0" x="0" id="text-entity-Game-0e04f80d-7238-4742-9b47-bfba30f3251a-attr-1-key" class="er entityLabel">PK</text><rect height="22" width="54.095550537109375" y="46" x="0" class="er attributeBoxEven"/><text style="dominant-baseline: middle; font-size: 10.2px;" transform="translate(5,57)" y="0" x="0" id="text-entity-Game-0e04f80d-7238-4742-9b47-bfba30f3251a-attr-2-type" class="er entityLabel">DateTime</text><rect height="22" width="124.62886047363281" y="46" x="54.095550537109375" class="er attributeBoxEven"/><text style="dominant-baseline: middle; font-size: 10.2px;" transform="translate(59.095550537109375,57)" y="0" x="0" id="text-entity-Game-0e04f80d-7238-4742-9b47-bfba30f3251a-attr-2-name" class="er entityLabel">date</text><rect height="22" width="22.68768310546875" y="46" x="178.7244110107422" class="er attributeBoxEven"/><text style="dominant-baseline: middle; font-size: 10.2px;" transform="translate(183.7244110107422,57)" y="0" x="0" id="text-entity-Game-0e04f80d-7238-4742-9b47-bfba30f3251a-attr-2-key" class="er entityLabel"/><rect height="22" width="54.095550537109375" y="68" x="0" class="er attributeBoxOdd"/><text style="dominant-baseline: middle; font-size: 10.2px;" transform="translate(5,79)" y="0" x="0" id="text-entity-Game-0e04f80d-7238-4742-9b47-bfba30f3251a-attr-3-type" class="er entityLabel">String</text><rect height="22" width="124.62886047363281" y="68" x="54.095550537109375" class="er attributeBoxOdd"/><text style="dominant-baseline: middle; font-size: 10.2px;" transform="translate(59.095550537109375,79)" y="0" x="0" id="text-entity-Game-0e04f80d-7238-4742-9b47-bfba30f3251a-attr-3-name" class="er entityLabel">firstTeamCountryCode</text><rect height="22" width="22.68768310546875" y="68" x="178.7244110107422" class="er attributeBoxOdd"/><text style="dominant-baseline: middle; font-size: 10.2px;" transform="translate(183.7244110107422,79)" y="0" x="0" id="text-entity-Game-0e04f80d-7238-4742-9b47-bfba30f3251a-attr-3-key" class="er entityLabel"/><rect height="22" width="54.095550537109375" y="90" x="0" class="er attributeBoxEven"/><text style="dominant-baseline: middle; font-size: 10.2px;" transform="translate(5,101)" y="0" x="0" id="text-entity-Game-0e04f80d-7238-4742-9b47-bfba30f3251a-attr-4-type" class="er entityLabel">String</text><rect height="22" width="124.62886047363281" y="90" x="54.095550537109375" class="er attributeBoxEven"/><text style="dominant-baseline: middle; font-size: 10.2px;" transform="translate(59.095550537109375,101)" y="0" x="0" id="text-entity-Game-0e04f80d-7238-4742-9b47-bfba30f3251a-attr-4-name" class="er entityLabel">secundTeamCountryCode</text><rect height="22" width="22.68768310546875" y="90" x="178.7244110107422" class="er attributeBoxEven"/><text style="dominant-baseline: middle; font-size: 10.2px;" transform="translate(183.7244110107422,101)" y="0" x="0" id="text-entity-Game-0e04f80d-7238-4742-9b47-bfba30f3251a-attr-4-key" class="er entityLabel"/></g><g transform="translate(152.19256973266602,20 )" id="entity-Guess-1f95b3b2-7015-4518-adfe-4e79e377efb8"><rect height="112" width="166.55987548828125" y="0" x="0" class="er entityBox"/><text style="dominant-baseline: middle; text-anchor: middle; font-size: 12px;" transform="translate(83.27993774414062,12)" y="0" x="0" id="text-entity-Guess-1f95b3b2-7015-4518-adfe-4e79e377efb8" class="er entityLabel">Guess</text><rect height="22" width="54.095550537109375" y="24" x="0" class="er attributeBoxOdd"/><text style="dominant-baseline: middle; font-size: 10.2px;" transform="translate(5,35)" y="0" x="0" id="text-entity-Guess-1f95b3b2-7015-4518-adfe-4e79e377efb8-attr-1-type" class="er entityLabel">String</text><rect height="22" width="89.77664184570312" y="24" x="54.095550537109375" class="er attributeBoxOdd"/><text style="dominant-baseline: middle; font-size: 10.2px;" transform="translate(59.095550537109375,35)" y="0" x="0" id="text-entity-Guess-1f95b3b2-7015-4518-adfe-4e79e377efb8-attr-1-name" class="er entityLabel">id</text><rect height="22" width="22.68768310546875" y="24" x="143.8721923828125" class="er attributeBoxOdd"/><text style="dominant-baseline: middle; font-size: 10.2px;" transform="translate(148.8721923828125,35)" y="0" x="0" id="text-entity-Guess-1f95b3b2-7015-4518-adfe-4e79e377efb8-attr-1-key" class="er entityLabel">PK</text><rect height="22" width="54.095550537109375" y="46" x="0" class="er attributeBoxEven"/><text style="dominant-baseline: middle; font-size: 10.2px;" transform="translate(5,57)" y="0" x="0" id="text-entity-Guess-1f95b3b2-7015-4518-adfe-4e79e377efb8-attr-2-type" class="er entityLabel">Int</text><rect height="22" width="89.77664184570312" y="46" x="54.095550537109375" class="er attributeBoxEven"/><text style="dominant-baseline: middle; font-size: 10.2px;" transform="translate(59.095550537109375,57)" y="0" x="0" id="text-entity-Guess-1f95b3b2-7015-4518-adfe-4e79e377efb8-attr-2-name" class="er entityLabel">firstTeamPoints</text><rect height="22" width="22.68768310546875" y="46" x="143.8721923828125" class="er attributeBoxEven"/><text style="dominant-baseline: middle; font-size: 10.2px;" transform="translate(148.8721923828125,57)" y="0" x="0" id="text-entity-Guess-1f95b3b2-7015-4518-adfe-4e79e377efb8-attr-2-key" class="er entityLabel"/><rect height="22" width="54.095550537109375" y="68" x="0" class="er attributeBoxOdd"/><text style="dominant-baseline: middle; font-size: 10.2px;" transform="translate(5,79)" y="0" x="0" id="text-entity-Guess-1f95b3b2-7015-4518-adfe-4e79e377efb8-attr-3-type" class="er entityLabel">Int</text><rect height="22" width="89.77664184570312" y="68" x="54.095550537109375" class="er attributeBoxOdd"/><text style="dominant-baseline: middle; font-size: 10.2px;" transform="translate(59.095550537109375,79)" y="0" x="0" id="text-entity-Guess-1f95b3b2-7015-4518-adfe-4e79e377efb8-attr-3-name" class="er entityLabel">secundTeamPoint</text><rect height="22" width="22.68768310546875" y="68" x="143.8721923828125" class="er attributeBoxOdd"/><text style="dominant-baseline: middle; font-size: 10.2px;" transform="translate(148.8721923828125,79)" y="0" x="0" id="text-entity-Guess-1f95b3b2-7015-4518-adfe-4e79e377efb8-attr-3-key" class="er entityLabel"/><rect height="22" width="54.095550537109375" y="90" x="0" class="er attributeBoxEven"/><text style="dominant-baseline: middle; font-size: 10.2px;" transform="translate(5,101)" y="0" x="0" id="text-entity-Guess-1f95b3b2-7015-4518-adfe-4e79e377efb8-attr-4-type" class="er entityLabel">DateTime</text><rect height="22" width="89.77664184570312" y="90" x="54.095550537109375" class="er attributeBoxEven"/><text style="dominant-baseline: middle; font-size: 10.2px;" transform="translate(59.095550537109375,101)" y="0" x="0" id="text-entity-Guess-1f95b3b2-7015-4518-adfe-4e79e377efb8-attr-4-name" class="er entityLabel">createdAt</text><rect height="22" width="22.68768310546875" y="90" x="143.8721923828125" class="er attributeBoxEven"/><text style="dominant-baseline: middle; font-size: 10.2px;" transform="translate(148.8721923828125,101)" y="0" x="0" id="text-entity-Guess-1f95b3b2-7015-4518-adfe-4e79e377efb8-attr-4-key" class="er entityLabel"/></g><rect height="14" width="23.958984375" y="471.861572265625" x="14.970193862915039" class="er relationshipLabelBox"/><text style="text-anchor: middle; dominant-baseline: middle; font-size: 12px;" y="478.861572265625" x="26.94968605041504" id="rel1" class="er relationshipLabel">user</text><rect height="14" width="23.564453125" y="365.1330871582031" x="161.50100708007812" class="er relationshipLabelBox"/><text style="text-anchor: middle; dominant-baseline: middle; font-size: 12px;" y="372.1330871582031" x="173.28323364257812" id="rel2" class="er relationshipLabel">pool</text><rect height="14" width="34.470703125" y="602.5916748046875" x="168.84413146972656" class="er relationshipLabelBox"/><text style="text-anchor: middle; dominant-baseline: middle; font-size: 12px;" y="609.5916748046875" x="186.07948303222656" id="rel3" class="er relationshipLabel">owner</text><rect height="14" width="59.744140625" y="182.25279235839844" x="89.34805297851562" class="er relationshipLabelBox"/><text style="text-anchor: middle; dominant-baseline: middle; font-size: 12px;" y="189.25279235839844" x="119.22012329101562" id="rel4" class="er relationshipLabel">participant</text><rect height="14" width="29.2890625" y="167.21961975097656" x="331.0604248046875" class="er relationshipLabelBox"/><text style="text-anchor: middle; dominant-baseline: middle; font-size: 12px;" y="174.21961975097656" x="345.7049560546875" id="rel5" class="er relationshipLabel">game</text></svg>